<svg width="24" height="24" viewBox="0 0 24 24" fill="none" xmlns="http://www.w3.org/2000/svg">
<g clip-path="url(#clip0_23592_827)">
<circle cx="12" cy="12" r="12" fill="url(#paint0_linear_23592_827)"/>
<path fill-rule="evenodd" clip-rule="evenodd" d="M12.0002 4.25C11.6341 4.25 11.3374 3.95619 11.3374 3.59375V3.15625C11.3374 2.79381 11.6341 2.5 12.0002 2.5C12.3662 2.5 12.6629 2.79381 12.6629 3.15625V3.59375C12.6629 3.95619 12.3662 4.25 12.0002 4.25ZM21.5001 11.9064C21.5001 12.2688 21.2034 12.5627 20.8373 12.5627H20.3955C20.0294 12.5627 19.7327 12.2688 19.7327 11.9064C19.7327 11.544 20.0294 11.2502 20.3955 11.2502H20.8373C21.2034 11.2502 21.5001 11.544 21.5001 11.9064ZM3.60465 12.5627C3.9707 12.5627 4.26744 12.2688 4.26744 11.9064C4.26744 11.544 3.9707 11.2502 3.60465 11.2502H3.16279C2.79674 11.2502 2.5 11.544 2.5 11.9064C2.5 12.2688 2.79674 12.5627 3.16279 12.5627H3.60465ZM17.4678 6.49251C17.209 6.23622 17.209 5.82071 17.4678 5.56443L17.7803 5.25507C18.0391 4.99879 18.4588 4.99879 18.7176 5.25507C18.9764 5.51135 18.9764 5.92687 18.7176 6.18315L18.4052 6.49251C18.1463 6.74879 17.7267 6.74879 17.4678 6.49251ZM5.28253 17.6295C5.02369 17.8858 5.02369 18.3013 5.28253 18.5576C5.54136 18.8138 5.96102 18.8138 6.21986 18.5576L6.5323 18.2482C6.79114 17.9919 6.79113 17.5764 6.5323 17.3201C6.27346 17.0638 5.85381 17.0638 5.59497 17.3201L5.28253 17.6295ZM6.5323 6.49251C6.27346 6.74879 5.85381 6.74879 5.59497 6.49251L5.28253 6.18315C5.0237 5.92687 5.0237 5.51135 5.28253 5.25507C5.54137 4.99879 5.96102 4.99879 6.21986 5.25507L6.5323 5.56443C6.79114 5.82071 6.79114 6.23622 6.5323 6.49251ZM17.7803 18.5576C18.0391 18.8138 18.4588 18.8138 18.7176 18.5576C18.9764 18.3013 18.9764 17.8858 18.7176 17.6295L18.4052 17.3201C18.1463 17.0638 17.7267 17.0638 17.4678 17.3201C17.209 17.5764 17.209 17.9919 17.4678 18.2482L17.7803 18.5576Z" fill="url(#paint1_linear_23592_827)"/>
<path fill-rule="evenodd" clip-rule="evenodd" d="M14.6 15.7717C16.0392 14.8938 17 13.3091 17 11.5C17 8.73858 14.7614 6.5 12 6.5C9.23858 6.5 7 8.73858 7 11.5C7 13.3085 7.96021 14.8928 9.39863 15.7708L9.55203 16.3894C9.65258 16.795 10.0166 17.0797 10.4344 17.0797H13.5631C13.9802 17.0797 14.3438 16.7959 14.445 16.3913L14.6 15.7717ZM10.1818 17.9888C10.1818 17.7378 10.3853 17.5343 10.6364 17.5343H13.3636C13.6147 17.5343 13.8182 17.7378 13.8182 17.9888C13.8182 18.2399 13.6147 18.4434 13.3636 18.4434H10.6364C10.3853 18.4434 10.1818 18.2399 10.1818 17.9888ZM11.0909 18.8979C10.8399 18.8979 10.6364 19.1014 10.6364 19.3524C10.6364 19.6035 10.8399 19.807 11.0909 19.807H12.9091C13.1601 19.807 13.3636 19.6035 13.3636 19.3524C13.3636 19.1014 13.1601 18.8979 12.9091 18.8979H11.0909Z" fill="url(#paint2_linear_23592_827)"/>
</g>
<defs>
<linearGradient id="paint0_linear_23592_827" x1="5" y1="1.5" x2="19.8803" y2="21.3398" gradientUnits="userSpaceOnUse">
<stop stop-color="#525356"/>
<stop offset="1" stop-color="#16171B"/>
</linearGradient>
<linearGradient id="paint1_linear_23592_827" x1="21.5" y1="18.3243" x2="8.32483" y2="-0.148676" gradientUnits="userSpaceOnUse">
<stop stop-color="#B2BAC0"/>
<stop offset="0.833333" stop-color="#FBFCFD"/>
</linearGradient>
<linearGradient id="paint2_linear_23592_827" x1="17" y1="19.807" x2="5.38115" y2="9.6109" gradientUnits="userSpaceOnUse">
<stop stop-color="#B2BAC0"/>
<stop offset="0.833333" stop-color="#FBFCFD"/>
</linearGradient>
<clipPath id="clip0_23592_827">
<rect width="24" height="24" fill="white"/>
</clipPath>
</defs>
</svg>
