<svg xmlns="http://www.w3.org/2000/svg" width="24" height="24" viewBox="0 0 24 24" fill="none">
	<g clip-path="url(#clip0_23283_836)">
		<circle cx="12" cy="12" r="12" fill="url(#paint0_linear_23283_836)" />
		<path d="M7.5 8C7.5 7.17157 8.17157 6.5 9 6.5L15 6.5C15.8284 6.5 16.5 7.17157 16.5 8V16.5684C16.5 16.9672 16.056 17.2055 15.7236 16.9851L14.2108 15.9818C12.8709 15.0932 11.1291 15.0932 9.7892 15.9818L8.27635 16.9851C7.944 17.2055 7.5 16.9672 7.5 16.5684L7.5 8Z" fill="url(#paint1_linear_23283_836)" />
		<path fill-rule="evenodd" clip-rule="evenodd" d="M8.06786 3.47136L7.00565 4.67198L8.55529 4.51232L9.76986 3.33569L8.06786 3.47136ZM4.72922 5.88545C5.27453 5.2377 5.90481 4.66384 6.60289 4.18106L6.39745 5.10172L7.30918 5.21256C6.76171 5.59163 6.26233 6.03524 5.82202 6.53238L4.83667 6.7544L4.72922 5.88545ZM3.19921 8.41649C3.48618 7.71244 3.85517 7.05056 4.29432 6.4427L4.40818 7.36348L5.3197 7.1581C4.96203 7.65072 4.65752 8.18444 4.41459 8.75083L3.56634 9.23616L3.19921 8.41649ZM2.95364 9.09141C2.71664 9.82912 2.56737 10.6062 2.51812 11.4102L3.13097 12.0765L3.77497 11.3547C3.82508 10.7071 3.94996 10.0805 4.14098 9.48343L3.33562 9.94422L2.95364 9.09141ZM2.50098 12.1301C2.51215 12.9625 2.63036 13.769 2.84247 14.5365L3.61724 14.9192L3.98208 13.9508C3.84043 13.3665 3.76098 12.7579 3.75114 12.1324L3.13661 12.8211L2.50098 12.1301ZM3.0516 15.1975C3.31943 15.947 3.67876 16.653 4.11612 17.3021L4.9882 17.4343L5.04027 16.4318C4.70523 15.9067 4.42798 15.3412 4.21748 14.7442L3.89059 15.6119L3.0516 15.1975ZM4.53055 17.8706C5.04072 18.5188 5.63346 19.099 6.29291 19.5953L7.2251 19.4618L7.0052 18.5667C6.44515 18.14 5.94133 17.6434 5.50677 17.0897L5.4589 18.0114L4.53055 17.8706ZM6.89624 20.014C7.61596 20.4733 8.40169 20.8383 9.23602 21.0917L9.97303 20.6457L9.35146 19.8157C8.74095 19.6089 8.1625 19.3325 7.62556 18.996L7.84234 19.8784L6.89624 20.014ZM15.9331 3.47136L16.9953 4.67198L15.4457 4.51232L14.2311 3.33569L15.9331 3.47136ZM19.2718 5.88545C18.7264 5.2377 18.0962 4.66384 17.3981 4.18106L17.6035 5.10172L16.6918 5.21256C17.2393 5.59163 17.7387 6.03524 18.179 6.53238L19.1643 6.7544L19.2718 5.88545ZM20.8018 8.41649C20.5148 7.71244 20.1458 7.05056 19.7067 6.4427L19.5928 7.36348L18.6813 7.1581C19.0389 7.65072 19.3435 8.18444 19.5864 8.75083L20.4346 9.23616L20.8018 8.41649ZM21.0473 9.09141C21.2843 9.82912 21.4336 10.6062 21.4829 11.4102L20.87 12.0765L20.226 11.3547C20.1759 10.7071 20.051 10.0805 19.86 9.48343L20.6654 9.94422L21.0473 9.09141ZM21.5 12.1301C21.4888 12.9625 21.3706 13.769 21.1585 14.5365L20.3837 14.9192L20.0189 13.9508C20.1605 13.3665 20.24 12.7579 20.2498 12.1324L20.8644 12.8211L21.5 12.1301ZM20.9494 15.1975C20.6815 15.947 20.3222 16.653 19.8849 17.3021L19.0128 17.4343L18.9607 16.4318C19.2957 15.9067 19.573 15.3412 19.7835 14.7442L20.1104 15.6119L20.9494 15.1975ZM19.4704 17.8706C18.9603 18.5188 18.3675 19.099 17.7081 19.5953L16.7759 19.4618L16.9958 18.5667C17.5558 18.14 18.0597 17.6434 18.4942 17.0897L18.5421 18.0114L19.4704 17.8706ZM17.1047 20.014C16.385 20.4733 15.5993 20.8383 14.765 21.0917L14.028 20.6457L14.6495 19.8157C15.26 19.6089 15.8385 19.3325 16.3754 18.996L16.1586 19.8784L17.1047 20.014ZM11.9999 20.25C12.3313 20.25 12.5999 20.5186 12.5999 20.85C12.5999 21.1814 12.3313 21.45 11.9999 21.45C11.6685 21.45 11.3999 21.1814 11.3999 20.85C11.3999 20.5186 11.6685 20.25 11.9999 20.25Z" fill="url(#paint2_linear_23283_836)" />
	</g>
	<defs>
		<linearGradient id="paint0_linear_23283_836" x1="5" y1="1.5" x2="19.8803" y2="21.3398" gradientUnits="userSpaceOnUse">
			<stop stop-color="#525356" />
			<stop offset="1" stop-color="#16171B" />
		</linearGradient>
		<linearGradient id="paint1_linear_23283_836" x1="16.5" y1="17.0693" x2="7.19287" y2="7.81453" gradientUnits="userSpaceOnUse">
			<stop stop-color="#B2BAC0" />
			<stop offset="0.833333" stop-color="#FBFCFD" />
		</linearGradient>
		<linearGradient id="paint2_linear_23283_836" x1="21.5" y1="21.45" x2="5.87096" y2="2.30777" gradientUnits="userSpaceOnUse">
			<stop stop-color="#B2BAC0" />
			<stop offset="0.833333" stop-color="#FBFCFD" />
		</linearGradient>
		<clipPath id="clip0_23283_836">
			<rect width="24" height="24" fill="white" />
		</clipPath>
	</defs>
</svg>
