<svg width="28" height="28" viewBox="0 0 28 28" fill="none" xmlns="http://www.w3.org/2000/svg">
<path d="M14 28C21.732 28 28 21.732 28 14C28 6.26801 21.732 0 14 0C6.26801 0 0 6.26801 0 14C0 21.732 6.26801 28 14 28Z" fill="url(#paint0_linear_75011_132311)"/>
<path d="M14 26C20.6274 26 26 20.6274 26 14C26 7.37258 20.6274 2 14 2C7.37258 2 2 7.37258 2 14C2 20.6274 7.37258 26 14 26Z" fill="url(#paint1_linear_75011_132311)"/>
<path d="M7 9H11L16 21H12L7 9Z" fill="url(#paint2_linear_75011_132311)"/>
<path d="M21 9H17L12 21H16L21 9Z" fill="#FFF496"/>
<defs>
<linearGradient id="paint0_linear_75011_132311" x1="10.0461" y1="0.36512" x2="19.25" y2="26.8333" gradientUnits="userSpaceOnUse">
<stop stop-color="#F4C82B"/>
<stop offset="1" stop-color="#FFE791"/>
</linearGradient>
<linearGradient id="paint1_linear_75011_132311" x1="10.611" y1="2.31296" x2="18.5" y2="25" gradientUnits="userSpaceOnUse">
<stop stop-color="#DF0505"/>
<stop offset="0.9999" stop-color="#F86060"/>
<stop offset="1" stop-color="#F97272"/>
</linearGradient>
<linearGradient id="paint2_linear_75011_132311" x1="8.5" y1="9" x2="13.5" y2="21" gradientUnits="userSpaceOnUse">
<stop stop-color="#FFF496"/>
<stop offset="1" stop-color="#FFF496" stop-opacity="0.5"/>
</linearGradient>
</defs>
</svg>
