<svg width="28" height="28" viewBox="0 0 28 28" fill="none" xmlns="http://www.w3.org/2000/svg">
<mask id="mask0_75011_132316" style="mask-type:alpha" maskUnits="userSpaceOnUse" x="0" y="0" width="28" height="28">
<circle cx="14" cy="14" r="14" fill="#D9D9D9"/>
</mask>
<g mask="url(#mask0_75011_132316)">
<path d="M14 28C21.732 28 28 21.732 28 14C28 6.26801 21.732 0 14 0C6.26801 0 0 6.26801 0 14C0 21.732 6.26801 28 14 28Z" fill="url(#paint0_linear_75011_132316)"/>
<path d="M14 27C21.1797 27 27 21.1797 27 14C27 6.8203 21.1797 1 14 1C6.8203 1 1 6.8203 1 14C1 21.1797 6.8203 27 14 27Z" fill="url(#paint1_linear_75011_132316)" stroke="url(#paint2_linear_75011_132316)" stroke-width="2"/>
<path d="M7 9H11L16 21H12L7 9Z" fill="url(#paint3_linear_75011_132316)"/>
<path d="M21 9H17L12 21H16L21 9Z" fill="#FFF496"/>
<rect x="7.70093" y="-5.32056" width="3" height="40" transform="rotate(30 7.70093 -5.32056)" fill="#FEE385" fill-opacity="0.2"/>
<rect x="4.40186" y="-6.82056" width="6" height="40" transform="rotate(30 4.40186 -6.82056)" fill="#FEE385" fill-opacity="0.2"/>
</g>
<defs>
<linearGradient id="paint0_linear_75011_132316" x1="10.0461" y1="0.36512" x2="19.25" y2="26.8333" gradientUnits="userSpaceOnUse">
<stop stop-color="#F4C82B"/>
<stop offset="1" stop-color="#FFE791"/>
</linearGradient>
<linearGradient id="paint1_linear_75011_132316" x1="10.611" y1="2.31296" x2="18.5" y2="25" gradientUnits="userSpaceOnUse">
<stop stop-color="#0252EF"/>
<stop offset="0.0001" stop-color="#2036DC"/>
<stop offset="1" stop-color="#708EEF"/>
</linearGradient>
<linearGradient id="paint2_linear_75011_132316" x1="6.5" y1="4" x2="21.5" y2="24.5" gradientUnits="userSpaceOnUse">
<stop stop-color="#F3C72B"/>
<stop offset="1" stop-color="#FFE793"/>
</linearGradient>
<linearGradient id="paint3_linear_75011_132316" x1="8.5" y1="9" x2="13.5" y2="21" gradientUnits="userSpaceOnUse">
<stop stop-color="#FFF496"/>
<stop offset="1" stop-color="#FFF496" stop-opacity="0.5"/>
</linearGradient>
</defs>
</svg>
